<svg id="CycleTime" xmlns="http://www.w3.org/2000/svg" width="36.287" height="35.464" viewBox="0 0 36.287 35.464">
  <path id="Path_40" data-name="Path 40" d="M17.248,25.71a1.783,1.783,0,0,0,1.186-.451l2.192,1.266a.567.567,0,1,0,.567-.982L19,24.277a1.791,1.791,0,0,0-1.188-2.057V18.285a.567.567,0,0,0-1.134,0v3.936a1.79,1.79,0,0,0,.567,3.489Zm0-2.447a.657.657,0,1,1-.657.657A.658.658,0,0,1,17.248,23.262Zm0,10.083a9.426,9.426,0,1,0-9.426-9.426A9.437,9.437,0,0,0,17.248,33.345Zm-4.626-16.3.246.426a.567.567,0,0,0,.982-.567l-.247-.427a8.231,8.231,0,0,1,3.078-.826v.494a.567.567,0,0,0,1.134,0v-.494a8.23,8.23,0,0,1,3.078.826l-.247.427a.567.567,0,1,0,.982.567l.246-.426a8.361,8.361,0,0,1,2.253,2.253l-.426.246a.567.567,0,1,0,.567.982l.427-.247a8.229,8.229,0,0,1,.826,3.078h-.494a.567.567,0,0,0,0,1.134h.494a8.231,8.231,0,0,1-.826,3.078l-.427-.247a.567.567,0,0,0-.567.982l.426.246A8.36,8.36,0,0,1,21.874,30.8l-.246-.426a.567.567,0,0,0-.982.567l.247.427a8.231,8.231,0,0,1-3.078.826V31.7a.567.567,0,1,0-1.134,0v.494a8.23,8.23,0,0,1-3.078-.826l.247-.427a.567.567,0,1,0-.982-.567l-.246.426a8.359,8.359,0,0,1-2.253-2.253L10.8,28.3a.567.567,0,0,0-.567-.982l-.427.247a8.229,8.229,0,0,1-.826-3.078H9.47a.567.567,0,0,0,0-1.134H8.975A8.23,8.23,0,0,1,9.8,20.274l.427.247a.567.567,0,1,0,.567-.982l-.426-.246a8.354,8.354,0,0,1,2.252-2.253ZM5.343,23.919A11.905,11.905,0,1,0,17.248,12.014,11.918,11.918,0,0,0,5.343,23.919ZM17.248,13.148A10.771,10.771,0,1,1,6.476,23.919,10.783,10.783,0,0,1,17.248,13.148Zm13.4,21.74a17.434,17.434,0,0,1-2.481,2.468,17.227,17.227,0,0,1-10.9,3.879q-.7,0-1.408-.057A17.228,17.228,0,0,1,5.168,36.325L5.35,37.96a.567.567,0,1,1-1.127.125l-.367-3.3a.567.567,0,0,1,.638-.625l3.288.434a.567.567,0,1,1-.148,1.124L5.946,35.5a16.2,16.2,0,0,0,23.826-1.331.567.567,0,1,1,.877.719ZM2.108,29.641a.567.567,0,1,1-1.061.4A17.328,17.328,0,0,1,12.435,7.283L11.18,6.877A.567.567,0,1,1,11.529,5.8l3.156,1.021a.567.567,0,0,1,.307.838l-1.747,2.819a.567.567,0,1,1-.964-.6l1.027-1.656a16.192,16.192,0,0,0-11.2,21.418Zm33.87-1.354-2.7,1.931a.567.567,0,0,1-.857-.251L31.2,26.887a.567.567,0,0,1,1.053-.42l.639,1.6A16.18,16.18,0,0,0,19.863,7.952a.567.567,0,0,1,.183-1.119A17.306,17.306,0,0,1,34,28.312l1.322-.947a.567.567,0,1,1,.66.922Z" transform="translate(0.073 -5.771)" fill="#fff"/>
</svg>
