<svg id="CycleCount" xmlns="http://www.w3.org/2000/svg" width="41.903" height="22.221" viewBox="0 0 41.903 22.221">
  <g id="Group_7" data-name="Group 7">
    <path id="Path_36" data-name="Path 36" d="M38.665,120.242H3.238A3.242,3.242,0,0,0,0,123.48v15.745a3.242,3.242,0,0,0,3.238,3.238H38.665a3.242,3.242,0,0,0,3.238-3.238V123.48A3.242,3.242,0,0,0,38.665,120.242Zm2.01,18.983a2.013,2.013,0,0,1-2.01,2.01H3.238a2.013,2.013,0,0,1-2.01-2.01V123.48a2.013,2.013,0,0,1,2.01-2.01H38.665a2.013,2.013,0,0,1,2.01,2.01v15.745Z" transform="translate(0 -120.242)" fill="#fff"/>
    <path id="Path_37" data-name="Path 37" d="M68.105,152.306H60.888a.614.614,0,1,0,0,1.228H62.21c-.917,1.282-1.513,2.062-1.86,2.517-.537.7-.682.893-.57,1.257a.659.659,0,0,0,.429.432,8.061,8.061,0,0,0,1.848.067c.662,0,1.572-.006,2.826-.022a.614.614,0,1,0-.015-1.228c-1.056.013-2.447.023-3.375.019.437-.574,1.152-1.524,2.223-3.043h3.775v14.518H65.174a2.892,2.892,0,0,0-1.061-1.737,2.889,2.889,0,1,0-4.613-2.835.614.614,0,1,0,1.2.237,1.662,1.662,0,1,1,1.631,1.985.614.614,0,0,0,0,1.228,1.664,1.664,0,0,1,1.571,1.123h-7V153.534h1.354a.614.614,0,0,0,0-1.228H32.678a.614.614,0,0,0-.614.614v15.745a.614.614,0,0,0,.614.614h1.968a.614.614,0,0,0,0-1.228H33.292V153.534H43.873v14.518h-6.6a.614.614,0,0,0,0,1.228H68.1a.614.614,0,0,0,.614-.614V152.92A.614.614,0,0,0,68.105,152.306Zm-23,1.228H55.682v14.518H45.1Z" transform="translate(-29.44 -149.682)" fill="#fff"/>
    <path id="Path_38" data-name="Path 38" d="M237.081,195.023H235.2a.614.614,0,1,0,0,1.228h1.262v8.162a.614.614,0,1,0,1.228,0v-8.776A.614.614,0,0,0,237.081,195.023Z" transform="translate(-215.392 -188.903)" fill="#fff"/>
    <path id="Path_39" data-name="Path 39" d="M79.256,200.045v-4.058a3.152,3.152,0,1,0-6.3,0v4.058a3.152,3.152,0,1,0,6.3,0Zm-5.076,0v-4.058a1.924,1.924,0,1,1,3.848,0v4.058a1.924,1.924,0,1,1-3.848,0Z" transform="translate(-66.982 -186.894)" fill="#fff"/>
  </g>
</svg>
