<svg xmlns="http://www.w3.org/2000/svg" width="23.018" height="36.837" viewBox="0 0 23.018 36.837">
  <g id="Temp223" transform="translate(0 0)">
    <g id="Temperature_Scale" data-name="Temperature Scale" transform="translate(0 0)">
      <path id="Path_41" data-name="Path 41" d="M24.814,21.886V5.372a5.372,5.372,0,1,0-10.744,0V21.886A8.441,8.441,0,0,0,18.43,36.774c8.326.975,12.869-9.539,6.385-14.888Zm-.767,11.672A6.907,6.907,0,0,1,15.3,22.868c.445-.338.307.867.307-17.5a3.837,3.837,0,0,1,7.674,0c0,18.364-.13,17.167.307,17.5a6.907,6.907,0,0,1,.46,10.69Z" transform="translate(-11.006)" fill="#fff"/>
      <path id="Path_42" data-name="Path 42" d="M33.767,6.535h3.07a.767.767,0,1,0,0-1.535h-3.07a.767.767,0,1,0,0,1.535Z" transform="translate(-16.122 -1.163)" fill="#fff"/>
      <path id="Path_43" data-name="Path 43" d="M33.767,11.535h4.6a.767.767,0,0,0,0-1.535h-4.6a.767.767,0,1,0,0,1.535Z" transform="translate(-16.122 -2.326)" fill="#fff"/>
      <path id="Path_44" data-name="Path 44" d="M33.767,16.535h3.07a.767.767,0,1,0,0-1.535h-3.07a.767.767,0,1,0,0,1.535Z" transform="translate(-16.122 -3.489)" fill="#fff"/>
      <path id="Path_45" data-name="Path 45" d="M38.372,20h-4.6a.767.767,0,1,0,0,1.535h4.6a.767.767,0,0,0,0-1.535Z" transform="translate(-16.122 -4.652)" fill="#fff"/>
      <path id="Path_46" data-name="Path 46" d="M36.837,25h-3.07a.767.767,0,1,0,0,1.535h3.07a.767.767,0,1,0,0-1.535Z" transform="translate(-16.122 -5.815)" fill="#fff"/>
      <path id="Path_47" data-name="Path 47" d="M22.677,24.475c0-19.446.269-18.878-.668-19.791A2.3,2.3,0,0,0,18.072,6.3V24.475a5.37,5.37,0,1,0,4.6,0ZM21.142,6.3v6.907H19.607V6.3a.767.767,0,0,1,1.535,0Zm-.767,26.859a3.839,3.839,0,0,1-1.282-7.451.767.767,0,0,0,.514-.721V14.744h1.535V24.989a.767.767,0,0,0,.514.721A3.839,3.839,0,0,1,20.374,33.162Z" transform="translate(-11.937 -0.931)" fill="#fff"/>
    </g>
  </g>
</svg>
